<svg width="300" height="300" viewBox="0 0 300 300" fill="none" xmlns="http://www.w3.org/2000/svg">
<rect width="300" height="300" fill="#CECECE" fill-opacity="0.7"/>
<g filter="url(#filter0_d)">
<path fill-rule="evenodd" clip-rule="evenodd" d="M95.0001 205.396C113.333 218.729 131.667 229.396 150 229.396C168.333 229.396 186.667 218.729 205 205.396C189.888 200.797 182.223 193.931 182.005 184.799C182.009 183.171 182.017 180.86 182.028 176.518C182.029 175.829 182.031 175.123 182.033 174.4C182.063 162.76 182.112 147.404 182.181 131.8C196.513 113.223 191.248 91.4439 186.756 91.987C181.246 92.6534 133.543 47.3858 124.393 45.0696C115.243 42.7535 92.0001 50.2369 88.0001 71.112C84.0001 91.987 82.3281 144.605 97.5001 165.612C101.817 171.59 108.617 173.928 117.897 172.626C117.91 176.995 117.936 179.447 118 184.396C117.882 193.945 110.215 200.801 95.0001 205.396Z" fill="url(#paint0_linear)"/>
<mask id="mask0" mask-type="alpha" maskUnits="userSpaceOnUse" x="85" y="44" width="120" height="186">
<path fill-rule="evenodd" clip-rule="evenodd" d="M95.0001 205.396C113.333 218.729 131.667 229.396 150 229.396C168.333 229.396 186.667 218.729 205 205.396C189.888 200.797 182.223 193.931 182.005 184.799C182.009 183.171 182.017 180.86 182.028 176.518C182.029 175.829 182.031 175.123 182.033 174.4C182.063 162.76 182.112 147.404 182.181 131.8C196.513 113.223 191.248 91.4439 186.756 91.987C181.246 92.6534 133.543 47.3858 124.393 45.0696C115.243 42.7535 92.0001 50.2369 88.0001 71.112C84.0001 91.987 82.3281 144.605 97.5001 165.612C101.817 171.59 108.617 173.928 117.897 172.626C117.91 176.995 117.936 179.447 118 184.396C117.882 193.945 110.215 200.801 95.0001 205.396Z" fill="white"/>
</mask>
<g mask="url(#mask0)">
<path d="M118 172.612C140 170.112 154 160.612 154 160.612C154 160.612 138 180.612 118 184.612V172.612Z" fill="#FC9F6A"/>
</g>
<path d="M189.5 132.112C196.39 115.541 224 81.7954 200.201 60.7954C192.201 21.7954 148 26.112 118.5 35.112C98.6731 41.1609 83.7013 53.112 80.5 44.112C60.5 60.7954 70.5157 77.112 83.7013 81.7954C95.6676 86.0458 115.903 90.2954 150.307 86.2954C156.453 85.5809 155.166 104.403 158.45 106.439C163.377 109.492 167.201 90.2954 180.709 96.0592C194.217 101.823 186.201 128.549 171.701 128.549C166.701 128.549 164.201 142.295 177.701 148.795C187.5 153.612 185.023 142.879 189.5 132.112Z" fill="url(#paint1_linear)"/>
</g>
<path d="M255 235.92C264.52 255.277 270 299.92 270 299.92H30C30 299.92 35.4824 255.272 45 235.92C54.5176 216.568 110.099 198.619 110.099 198.619C140.813 210.617 159.608 210.614 189.871 198.612C189.871 198.612 245.48 216.563 255 235.92Z" fill="#190020"/>
<path d="M157 205.612L162 297.612H138L143 205.612C143 205.612 147.667 200.612 150 200.612C152.333 200.612 157 205.612 157 205.612Z" fill="#E67240"/>
<path d="M158.14 224.304L142.414 215.218L143 205.612C146.111 202.279 148.444 200.612 150 200.612C151.556 200.612 153.889 202.279 157 205.612L158.14 224.304Z" fill="#645050"/>
<mask id="mask1" mask-type="alpha" maskUnits="userSpaceOnUse" x="142" y="200" width="17" height="25">
<path d="M158.14 224.304L142.414 215.218L143 205.612C146.111 202.279 148.444 200.612 150 200.612C151.556 200.612 153.889 202.279 157 205.612L158.14 224.304Z" fill="white"/>
</mask>
<g mask="url(#mask1)">
</g>
<path fill-rule="evenodd" clip-rule="evenodd" d="M150 200.603L160 218.612L191 199.612L182 186.612L150 198.433L118 186.612L109 199.612L140 218.612L150 200.603Z" fill="white"/>
<defs>
<filter id="filter0_d" x="57.1863" y="24" width="164.509" height="224.396" filterUnits="userSpaceOnUse" color-interpolation-filters="sRGB">
<feFlood flood-opacity="0" result="BackgroundImageFix"/>
<feColorMatrix in="SourceAlpha" type="matrix" values="0 0 0 0 0 0 0 0 0 0 0 0 0 0 0 0 0 0 127 0"/>
<feOffset dy="7"/>
<feGaussianBlur stdDeviation="6"/>
<feColorMatrix type="matrix" values="0 0 0 0 0 0 0 0 0 0 0 0 0 0 0.145098 0 0 0 0.04 0"/>
<feBlend mode="normal" in2="BackgroundImageFix" result="effect1_dropShadow"/>
<feBlend mode="normal" in="SourceGraphic" in2="effect1_dropShadow" result="shape"/>
</filter>
<linearGradient id="paint0_linear" x1="205" y1="44.6648" x2="205" y2="229.396" gradientUnits="userSpaceOnUse">
<stop stop-color="#F7B186"/>
<stop offset="1" stop-color="#FFC299"/>
</linearGradient>
<linearGradient id="paint1_linear" x1="209.695" y1="29" x2="209.695" y2="149.98" gradientUnits="userSpaceOnUse">
<stop stop-color="#1D0024"/>
<stop offset="1" stop-color="#100014"/>
</linearGradient>
</defs>
</svg>
